<svg xmlns="http://www.w3.org/2000/svg" fill="none" viewBox="0 0 32 32" id="Link--Streamline-Block-Free" height="32" width="32">
  <desc>
    Link Streamline Icon: https://streamlinehq.com
  </desc>
  <path fill="#fff7bc" d="M28.0948 3.90524c5.207 5.207 5.207 13.6492 0 18.85616l-1.606 1.606 -5.5494 -5.5494 1.4246 -1.42462c2.1422 -2.1421 2.1422 -5.61514 0 -7.75728 -2.142 -2.14216 -5.61512 -2.1422 -7.75726 -0.00008l-1.4247 1.42468 -5.54954 -5.54954 1.60584 -1.60592c5.20704 -5.206988 13.64926 -5.206988 18.85646 0Z" stroke-width="2"></path>
  <path fill="#fff7bc" d="M24.3676 26.4888 18.818 20.9394l-1.4247 1.4246c-2.14216 2.1422 -5.61526 2.142 -7.75736 0 -2.14206 -2.1422 -2.14202 -5.61526 0.0001 -7.75736l1.42466 -1.42464 -5.54946 -5.54946 -1.60596 1.60604c-5.20704 5.20698 -5.20704 13.64922 0 18.85622 5.20704 5.207 13.64934 5.207 18.85632 0l1.606 -1.606Z" stroke-width="2"></path>
  <path fill="#fff7bc" d="M20.2426 15.27204c0.9706 -0.97054 0.9706 -2.5441 0.0002 -3.51466 -0.97062 -0.97056 -2.5442 -0.97058 -3.51476 -0.00004L11.75734 16.72798c-0.97054 0.97054 -0.97056 2.5441 -0.00004 3.51462 0.97054 0.9706 2.54412 0.9706 3.51468 0l4.97062 -4.97056Z" stroke-width="2"></path>
</svg>